<?xml version="1.0" encoding="iso-8859-1"?>
<!-- Generator: Adobe Illustrator 19.0.0, SVG Export Plug-In . SVG Version: 6.00 Build 0)  -->
<svg xmlns="http://www.w3.org/2000/svg" xmlns:xlink="http://www.w3.org/1999/xlink" version="1.1" id="Layer_1" x="0px" y="0px" viewBox="0 0 485 485" style="enable-background:new 0 0 485 485;" xml:space="preserve" width="512px" height="512px">
<g>
	<path d="M351.241,164.413l-58.495,12.345l40.066,44.371l-6.333,59.448l54.579-24.395l54.581,24.395l-6.335-59.448l40.066-44.371   l-58.495-12.345l-29.817-51.818L351.241,164.413z M412.166,195.345l-14.113,15.629l2.231,20.94l-19.226-8.593l-19.226,8.593   l2.231-20.94l-14.113-15.629l20.604-4.349l10.503-18.252l10.503,18.252L412.166,195.345z" fill="#FFFFFF"/>
	<polygon points="480.718,340.677 454.809,335.208 441.601,312.253 428.393,335.208 402.484,340.677 420.231,360.33    417.426,386.661 441.602,375.855 465.781,386.661 462.972,360.329  " fill="#FFFFFF"/>
	<path d="M237.282,242.5c0-81.075,45.101-153.963,117.702-190.221l26.871-13.419L354.984,25.44C321.181,8.559,284.776,0,246.782,0   C182.007,0,121.11,25.225,75.308,71.027S4.282,177.726,4.282,242.5c0,64.774,25.225,125.671,71.026,171.474   C121.11,459.775,182.007,485,246.782,485c37.994,0,74.399-8.559,108.202-25.44l26.871-13.419l-26.871-13.419   C282.382,396.463,237.282,323.575,237.282,242.5z M246.782,455c-117.173,0-212.5-95.327-212.5-212.5S129.609,30,246.782,30   c23.447,0,46.196,3.716,67.94,11.076c-28.038,18.823-51.961,43.364-70.134,72.147c-24.406,38.653-37.307,83.357-37.307,129.277   c0,45.921,12.9,90.624,37.307,129.278c18.173,28.782,42.096,53.323,70.134,72.146C292.978,451.284,270.229,455,246.782,455z" fill="#FFFFFF"/>
</g>
<g>
</g>
<g>
</g>
<g>
</g>
<g>
</g>
<g>
</g>
<g>
</g>
<g>
</g>
<g>
</g>
<g>
</g>
<g>
</g>
<g>
</g>
<g>
</g>
<g>
</g>
<g>
</g>
<g>
</g>
</svg>
